#!OML:ASF G:\JayActor3\Patient Classification 1\Patient 1\Session 5\male.ASF
:FULLY-SPECIFIED
:DEGREES
654
root -35.5274 16.902 -5.89605 1062.21 -100.964 -1063.01
lowerback 0.135455 -0.141234 2.08827
upperback 1.94884 -0.22657 0.0726264
thorax 1.91414 -0.0864087 -1.09931
lowerneck -9.68404 0.482506 3.5033
upperneck 10.1229 -0.174264 2.15636
head 4.62848 0.158328 0.0833465
rclavicle -3.27995e-015 -2.38542e-015
rhumerus -33.2413 -7.9545 -84.5329
rradius 29.2298
rwrist 3.94619
rhand -18.3547 -4.79802
rfingers 7.12502
rthumb 7.92799 -34.6293
lclavicle -3.27995e-015 -2.38542e-015
lhumerus -26.5621 4.96011 83.7408
lradius 25.873
lwrist 18.5031
lhand -17.131 16.6685
lfingers 7.12502
lthumb 9.10891 46.4518
rfemur -11.2802 8.49963 23.8113
rtibia 38.617
rfoot -23.5937 -4.63339
rtoes 8.5932
lfemur -7.07753 9.07046 -17.0663
ltibia 26.6155
lfoot -17.6626 -1.36583
ltoes -6.99171
655
root -35.51 16.8967 -5.87734 1063.64 -101.629 -1064.35
lowerback 0.34197 -0.150512 1.95181
upperback 1.98618 -0.234009 0.0388641
thorax 1.8364 -0.0930979 -1.05695
lowerneck -9.68656 0.497793 3.51774
upperneck 9.95445 -0.163043 2.25988
head 4.57737 0.167347 0.113541
rclavicle 1.38652e-014 -1.98785e-015
rhumerus -33.1742 -7.85373 -84.6727
rradius 29.7119
rwrist 3.66151
rhand -18.2557 -4.81747
rfingers 7.12502
rthumb 8.02354 -34.6452
lclavicle 1.38652e-014 -1.98785e-015
lhumerus -26.5681 5.35875 83.6347
lradius 25.5797
lwrist 18.3354
lhand -16.597 17.3403
lfingers 7.12502
lthumb 9.62419 47.1005
rfemur -11.7705 8.48006 23.5863
rtibia 38.9905
rfoot -23.4561 -4.33889
rtoes 8.04948
lfemur -7.21384 9.53028 -17.199
ltibia 26.7117
lfoot -17.7653 -1.06967
ltoes -7.13113
656
root -35.4919 16.8911 -5.85797 1065.04 -102.312 -1065.67
lowerback 0.552426 -0.165055 1.80003
upperback 2.02995 -0.249068 -0.00560399
thorax 1.7629 -0.103689 -1.017
lowerneck -9.71538 0.500307 3.51811
upperneck 9.8029 -0.170162 2.3757
head 4.53578 0.167876 0.1486
rclavicle 2.5022e-014 -1.27222e-014
rhumerus -33.0788 -7.76534 -84.8181
rradius 30.1702
rwrist 3.38181
rhand -18.1149 -4.87178
rfingers 7.12502
rthumb 8.1594 -34.6942
lclavicle 2.5022e-014 -1.27222e-014
lhumerus -26.5849 5.62368 83.5886
lradius 25.3027
lwrist 18.3767
lhand -16.3936 17.6015
lfingers 7.12502
lthumb 9.82041 47.3525
rfemur -12.2823 8.39026 23.3238
rtibia 39.3841
rfoot -23.3469 -3.97383
rtoes 7.36789
lfemur -7.34843 9.96944 -17.3624
ltibia 26.8075
lfoot -17.8747 -0.731677
ltoes -7.30277
657
root -35.4736 16.8852 -5.83895 1066.33 -103.035 -1066.88
lowerback 0.769281 -0.179634 1.64196
upperback 2.07406 -0.264914 -0.0525383
thorax 1.68623 -0.114796 -0.975948
lowerneck -9.7395 0.496566 3.49906
upperneck 9.64719 -0.185036 2.51321
head 4.49216 0.164821 0.192904
rclavicle 7.60351e-015 1.98785e-015
rhumerus -32.9622 -7.67831 -84.9725
rradius 30.5923
rwrist 3.10336
rhand -17.9924 -4.92512
rfingers 7.12502
rthumb 8.27772 -34.7429
lclavicle 7.60351e-015 1.98785e-015
lhumerus -26.6105 5.83065 83.563
lradius 25.0482
lwrist 18.3991
lhand -16.294 17.808
lfingers 7.12502
lthumb 9.91656 47.5545
rfemur -12.8156 8.26213 23.0561
rtibia 39.7915
rfoot -23.2712 -3.51714
rtoes 6.57888
lfemur -7.48367 10.4005 -17.5274
ltibia 26.9073
lfoot -17.9899 -0.350687
ltoes -7.47165
658
root -35.4548 16.8792 -5.81974 1067.55 -103.782 -1068.01
lowerback 0.978489 -0.197823 1.47661
upperback 2.12302 -0.286637 -0.10691
thorax 1.61878 -0.128819 -0.938405
lowerneck -9.79413 0.484985 3.49513
upperneck 9.5112 -0.212862 2.63556
head 4.45967 0.155542 0.229292
rclavicle 1.34925e-014 7.15625e-015
rhumerus -32.8184 -7.58586 -85.143
rradius 30.9711
rwrist 2.79083
rhand -17.9324 -4.93587
rfingers 7.12502
rthumb 8.33555 -34.7514
lclavicle 1.34925e-014 7.15625e-015
lhumerus -26.6375 5.99795 83.5495
lradius 24.8104
lwrist 18.3552
lhand -16.3064 17.862
lfingers 7.12502
lthumb 9.90457 47.609
rfemur -13.3726 8.07444 22.7703
rtibia 40.2115
rfoot -23.2289 -2.97859
rtoes 5.62598
lfemur -7.62015 10.823 -17.7059
ltibia 27.0035
lfoot -18.1081 0.0555868
ltoes -7.61349
659
root -35.4358 16.8737 -5.80158 1068.59 -104.585 -1068.96
lowerback 1.1786 -0.210942 1.32282
upperback 2.16782 -0.302618 -0.155991
thorax 1.55243 -0.139837 -0.901818
lowerneck -9.84894 0.465039 3.50156
upperneck 9.38352 -0.253035 2.75142
head 4.42978 0.140151 0.261172
rclavicle -2.30342e-014 -1.59028e-015
rhumerus -32.6684 -7.48072 -85.3337
rradius 31.3068
rwrist 2.41917
rhand -17.9873 -4.8513
rfingers 7.12502
rthumb 8.2826 -34.6689
lclavicle -2.30342e-014 -1.59028e-015
lhumerus -26.6816 6.10945 83.5492
lradius 24.5934
lwrist 18.2614
lhand -16.3833 17.8893
lfingers 7.12502
lthumb 9.8304 47.6398
rfemur -13.9532 7.90393 22.523
rtibia 40.6356
rfoot -23.2232 -2.40709
rtoes 4.53231
lfemur -7.76469 11.2497 -17.8525
ltibia 27.0998
lfoot -18.2276 0.495568
ltoes -7.69614
660
root -35.4165 16.8688 -5.78349 1069.57 -105.419 -1069.84
lowerback 1.37046 -0.223606 1.1661
upperback 2.20436 -0.318681 -0.208751
thorax 1.4823 -0.150906 -0.867285
lowerneck -9.90995 0.434547 3.51939
upperneck 9.26924 -0.308658 2.85673
head 4.40503 0.117104 0.286949
rclavicle -8.89313e-014 7.15625e-015
rhumerus -32.52 -7.37448 -85.5327
rradius 31.6112
rwrist 2.03794
rhand -18.1162 -4.68057
rfingers 7.12502
rthumb 8.15815 -34.5031
lclavicle -8.89313e-014 7.15625e-015
lhumerus -26.7405 6.17222 83.5611
lradius 24.3857
lwrist 18.1164
lhand -16.5132 17.8143
lfingers 7.12502
lthumb 9.70503 47.5708
rfemur -14.5583 7.71187 22.2832
rtibia 41.0625
rfoot -23.2392 -1.87115
rtoes 3.1065
lfemur -7.91923 11.6839 -18.0011
ltibia 27.1882
lfoot -18.345 0.95299
ltoes -7.72295
661
root -35.3973 16.8647 -5.76631 1070.4 -106.311 -1070.55
lowerback 1.54132 -0.227773 1.02282
upperback 2.24246 -0.324463 -0.253739
thorax 1.42588 -0.156598 -0.832379
lowerneck -9.98569 0.387725 3.52538
upperneck 9.16878 -0.386586 2.969
head 4.38701 0.0833564 0.315331
rclavicle 3.51103e-014 2.78299e-015
rhumerus -32.3571 -7.2651 -85.7383
rradius 31.873
rwrist 1.65293
rhand -18.3029 -4.41648
rfingers 7.12502
rthumb 7.97798 -34.2459
lclavicle 3.51103e-014 2.78299e-015
lhumerus -26.7958 6.19793 83.5866
lradius 24.1846
lwrist 17.9372
lhand -16.6583 17.7443
lfingers 7.12502
lthumb 9.56506 47.5072
rfemur -15.1808 7.54479 22.0916
rtibia 41.4871
rfoot -23.2882 -1.44083
rtoes 1.36223
lfemur -8.07734 12.1335 -18.1167
ltibia 27.2654
lfoot -18.4566 1.43619
ltoes -7.7327
662
root -35.3786 16.8613 -5.74933 1071.21 -107.232 -1071.23
lowerback 1.69392 -0.228779 0.871327
upperback 2.26992 -0.326552 -0.302921
thorax 1.3689 -0.16046 -0.797206
lowerneck -10.0247 0.32181 3.50702
upperneck 9.06587 -0.487354 3.10282
head 4.36232 0.0381254 0.352648
rclavicle -6.85807e-015 -1.51076e-014
rhumerus -32.2168 -7.15872 -85.9389
rradius 32.1186
rwrist 1.31765
rhand -18.4495 -4.18852
rfingers 7.12502
rthumb 7.8365 -34.0233
lclavicle -6.85807e-015 -1.51076e-014
lhumerus -26.8729 6.18056 83.6242
lradius 23.9961
lwrist 17.7405
lhand -16.8259 17.6499
lfingers 7.12502
lthumb 9.40334 47.4201
rfemur -15.813 7.36855 21.9045
rtibia 41.9109
rfoot -23.3783 -1.10178
rtoes -0.61291
lfemur -8.23094 12.5928 -18.2417
ltibia 27.3238
lfoot -18.5627 1.93829
ltoes -7.75298
663
root -35.3606 16.8585 -5.73234 1072.01 -108.17 -1071.91
lowerback 1.83179 -0.231169 0.702536
upperback 2.29664 -0.331273 -0.358067
thorax 1.31946 -0.165791 -0.758489
lowerneck -10.039 0.241439 3.45041
upperneck 8.95308 -0.604017 3.26916
head 4.33085 -0.0150592 0.405022
rclavicle 5.36719e-014 1.59028e-015
rhumerus -32.0791 -7.05496 -86.1344
rradius 32.3452
rwrist 1.04005
rhand -18.5422 -4.00635
rfingers 7.12502
rthumb 7.74701 -33.8444
lclavicle 5.36719e-014 1.59028e-015
lhumerus -26.9463 6.14715 83.6705
lradius 23.8213
lwrist 17.5442
lhand -16.9206 17.6518
lfingers 7.12502
lthumb 9.31193 47.4262
rfemur -16.4437 7.16115 21.7067
rtibia 42.3318
rfoot -23.517 -0.841976
rtoes -2.75047
lfemur -8.37369 13.0569 -18.3897
ltibia 27.3634
lfoot -18.6631 2.45281
ltoes -7.75104
664
root -35.3434 16.8559 -5.71551 1072.77 -109.124 -1072.56
lowerback 1.95025 -0.234885 0.526424
upperback 2.32935 -0.338619 -0.41746
thorax 1.28707 -0.17247 -0.720102
lowerneck -10.0563 0.142595 3.36754
upperneck 8.84668 -0.743665 3.45105
head 4.30226 -0.0795506 0.464907
rclavicle 2.73826e-014 1.19271e-015
rhumerus -31.9347 -6.94831 -86.3261
rradius 32.5637
rwrist 0.825216
rhand -18.5519 -3.92746
rfingers 7.12502
rthumb 7.73763 -33.7659
lclavicle 2.73826e-014 1.19271e-015
lhumerus -26.9971 6.10922 83.7213
lradius 23.6532
lwrist 17.354
lhand -16.9927 17.6557
lfingers 7.12502
lthumb 9.24242 47.4332
rfemur -17.0663 6.92644 21.5078
rtibia 42.7499
rfoot -23.7222 -0.649472
rtoes -4.84692
lfemur -8.50459 13.5015 -18.5525
ltibia 27.3873
lfoot -18.7618 2.99918
ltoes -7.72105
665
root -35.3272 16.8539 -5.69965 1073.49 -110.101 -1073.16
lowerback 2.05162 -0.238861 0.341661
upperback 2.36493 -0.347038 -0.476511
thorax 1.26729 -0.179824 -0.67659
lowerneck -10.0666 0.0294082 3.25283
upperneck 8.73853 -0.89992 3.65564
head 4.27265 -0.152289 0.535809
rclavicle 5.31252e-014 -5.96354e-015
rhumerus -31.7902 -6.82733 -86.519
rradius 32.7781
rwrist 0.670412
rhand -18.4923 -3.94862
rfingers 7.12502
rthumb 7.79516 -33.7849
lclavicle 5.31252e-014 -5.96354e-015
lhumerus -27.0285 6.08702 83.7645
lradius 23.499
lwrist 17.1705
lhand -17.0115 17.6875
lfingers 7.12502
lthumb 9.22426 47.4657
rfemur -17.6819 6.67744 21.3197
rtibia 43.165
rfoot -23.9888 -0.490905
rtoes -6.67305
lfemur -8.62272 13.9153 -18.7197
ltibia 27.3951
lfoot -18.8585 3.59576
ltoes -7.66477
666
root -35.3117 16.8522 -5.68476 1074.06 -111.105 -1073.61
lowerback 2.1382 -0.245249 0.183133
upperback 2.4138 -0.359164 -0.525986
thorax 1.26936 -0.188814 -0.638056
lowerneck -10.1244 -0.0949423 3.12772
upperneck 8.65304 -1.07296 3.86264
head 4.2585 -0.232482 0.608057
rclavicle -1.00684e-013 -9.14409e-015
rhumerus -31.6275 -6.72492 -86.6987
rradius 32.9849
rwrist 0.65514
rhand -18.3537 -4.01262
rfingers 7.12502
rthumb 7.92899 -33.8439
lclavicle -1.00684e-013 -9.14409e-015
lhumerus -27.0188 6.10924 83.7876
lradius 23.3532
lwrist 16.9571
lhand -16.9799 17.6825
lfingers 7.12502
lthumb 9.25469 47.4594
rfemur -18.2726 6.43003 21.178
rtibia 43.5748
rfoot -24.3279 -0.322515
rtoes -7.85057
lfemur -8.72879 14.2712 -18.8527
ltibia 27.3941
lfoot -18.959 4.26045
ltoes -7.59448
667
root -35.2971 16.8515 -5.67063 1074.61 -112.127 -1074.04
lowerback 2.20591 -0.255186 0.0159832
upperback 2.4684 -0.376494 -0.576173
thorax 1.28795 -0.200641 -0.595489
lowerneck -10.2044 -0.22739 2.99401
upperneck 8.58275 -1.25784 4.07491
head 4.25346 -0.317907 0.682482
rclavicle 3.78685e-014 -1.23246e-014
rhumerus -31.4535 -6.57965 -86.8967
rradius 33.1814
rwrist 0.604842
rhand -18.2592 -4.06772
rfingers 7.12502
rthumb 8.02018 -33.8956
lclavicle 3.78685e-014 -1.23246e-014
lhumerus -26.9809 6.1688 83.79
lradius 23.2125
lwrist 16.7137
lhand -16.8434 17.7375
lfingers 7.12502
lthumb 9.38641 47.5085
rfemur -18.8306 6.18595 21.0361
rtibia 43.9692
rfoot -24.742 -0.110295
rtoes -8.18599
lfemur -8.8268 14.5579 -18.9967
ltibia 27.3834
lfoot -19.0658 5.00466
ltoes -7.51807
